<svg width="17" height="18" viewBox="0 0 17 18" fill="none" xmlns="http://www.w3.org/2000/svg">
<path fill-rule="evenodd" clip-rule="evenodd" d="M13.8788 13.5L13.2683 5.65106C13.0861 3.30819 11.1318 1.5 8.78188 1.5H8.21812C5.86818 1.5 3.91389 3.30819 3.73167 5.65105L3.1212 13.5L13.8788 13.5ZM2.23619 5.53474L1.61667 13.5L0.5 13.5V15L1.5 15H3.00453H4.62602C5.07006 16.7252 6.63616 18 8.5 18C10.3638 18 11.9299 16.7252 12.374 15H13.9955H15.5H16.5V13.5H15.3833L14.7638 5.53474C14.5208 2.41092 11.9151 0 8.78188 0H8.21812C5.08487 0 2.47915 2.41092 2.23619 5.53474ZM10.792 15L6.20802 15C6.5938 15.883 7.47484 16.5 8.5 16.5C9.52516 16.5 10.4062 15.883 10.792 15Z" fill="#4E6E81"/>
</svg>
