<svg width="18" height="21" viewBox="0 0 18 21" fill="none" xmlns="http://www.w3.org/2000/svg">
<path fill-rule="evenodd" clip-rule="evenodd" d="M3.35968 5.46333L2.48272 17.39C2.41879 18.2594 3.10692 19 3.97868 19H14.0211C14.8929 19 15.581 18.2594 15.5171 17.39L14.6403 5.46334C14.6211 5.20213 14.4035 5 14.1416 5H12.9955L12.9956 7.49994L11.4956 7.5L11.4955 5H6.50016L6.50006 7.5L5.00006 7.49994L5.00016 5H3.85833C3.59641 5 3.37889 5.20212 3.35968 5.46333ZM5.00023 3.5H3.85833C2.81066 3.5 1.94054 4.30849 1.86372 5.35334L0.986756 17.28C0.858902 19.0188 2.23516 20.5 3.97868 20.5H14.0211C15.7646 20.5 17.1409 19.0188 17.0131 17.28L16.1362 5.35336C16.0594 4.3085 15.1893 3.5 14.1416 3.5H12.9954L12.9954 3.24988C12.9953 1.73115 11.7641 0.5 10.2454 0.5H7.75024C6.2315 0.5 5.0003 1.73115 5.00024 3.24989L5.00023 3.5ZM6.50023 3.5L6.50024 3.24995C6.50027 2.55961 7.0599 2 7.75024 2H10.2454C10.9357 2 11.4954 2.55961 11.4954 3.24995L11.4954 3.5H6.50023Z" fill="white"/>
</svg>
