<svg width="26" height="26" viewBox="0 0 26 26" fill="none" xmlns="http://www.w3.org/2000/svg">
<path d="M12.9972 25C12.1087 25 11.3729 25 10.7822 24.977M12.9972 25L13.262 23.1847M12.9972 25C14.2337 25 15.222 25 15.9771 24.9673M12.5337 8.23864C12.3351 6.82673 11.2225 4.05133 8.36165 4.24496M17.8316 4.24496C16.3526 4.10377 13.4079 4.75325 13.4609 8.48068M10.9522 11.1431C11.2675 8.93937 11.8903 7.22799 12.9972 7.20997C14.0812 7.19233 14.667 8.98233 14.9505 11.2698M10.9522 11.1431C9.69134 10.8809 6.77229 9.98134 5.18292 8.48068M10.9522 11.1431C10.8802 11.6466 10.8242 12.1758 10.7822 12.7164M5.18292 8.48068C5.91138 7.29064 6.97096 4.52331 5.38159 2.97424C5.48413 3.99481 4.48016 5.04351 4.18957 5.21312C3.6096 5.55165 2.74116 1.9689 3.26244 1.21945C3.78372 0.469989 -2.30923 8.47682 3.59356 8.78323M5.18292 8.48068L3.59356 8.78323M3.59356 8.78323C6.9045 11.5062 7.44145 11.5667 10.7822 12.7164M10.7822 12.7164C10.7326 13.3538 10.7024 14.0071 10.6882 14.6527M10.6882 14.6527C9.25061 14.6527 8.84706 14.6124 8.82499 14.5922L6.44094 13.2005M10.6882 14.6527C10.6815 14.9578 10.6784 15.2612 10.6784 15.5604M10.7128 17.2547H8.82499L6.44094 15.8024M10.7128 17.2547C10.6909 16.7185 10.6785 16.1475 10.6784 15.5604M10.7128 17.2547C10.7213 17.4619 10.7312 17.664 10.7424 17.8598M10.9301 19.8566H8.82499L6.44094 18.4044M10.9301 19.8566C10.8538 19.3421 10.7877 18.6526 10.7424 17.8598M10.9301 19.8566C10.9499 19.9898 10.9703 20.1112 10.9913 20.2197M10.6784 15.5604C12.4138 14.7865 13.3959 14.7968 15.1767 15.5604M15.1767 15.5604C15.1756 16.1475 15.1634 16.7185 15.1431 17.2547M15.1767 15.5604C15.1773 15.2612 15.175 14.9578 15.1695 14.6527M10.7424 17.8598C12.7634 17.1078 14.2512 17.4081 15.1159 17.8598M15.1159 17.8598C15.0747 18.6527 15.016 19.3422 14.9505 19.8566M15.1159 17.8598C15.1261 17.664 15.1352 17.4619 15.1431 17.2547M10.9913 20.2197C11.0606 20.5785 11.1355 20.7953 11.2092 20.8248C8.46356 24.2191 8.03756 24.8539 10.6784 24.9727C10.7125 24.9742 10.7471 24.9757 10.7822 24.977M10.9913 20.2197C12.754 19.3527 13.645 19.2229 14.8985 20.2197M14.8985 20.2197C14.8393 20.5827 14.7771 20.8 14.719 20.8248C18.2747 24.1707 19.0236 24.8353 15.9771 24.9673M14.8985 20.2197C14.9161 20.1112 14.9335 19.9898 14.9505 19.8566M14.9505 19.8566H17.4341L19.7519 18.5254M15.1431 17.2547H17.4341L19.7519 15.9839M15.1695 14.6527H17.3016L19.5532 13.4425M15.1695 14.6527C15.1579 14.0071 15.1317 13.3538 15.0876 12.7164M14.9505 11.2698C16.4847 10.7637 19.8578 9.44886 21.0763 8.23864M14.9505 11.2698C15.0082 11.7351 15.0533 12.2209 15.0876 12.7164M21.0763 8.23864C19.5375 7.15235 20.0059 2.917 20.6128 2.97424C20.6128 2.97424 21.8931 3.96257 21.871 5.03158C22.4891 4.12394 22.7982 1.21945 22.7982 1.21945C23.5456 -0.3714 27.355 7.15389 22.7982 8.78323M21.0763 8.23864L22.7982 8.78323M22.7982 8.78323C21.0793 9.99343 17.1307 12.4743 15.0876 12.7164M10.7822 24.977C11.0128 24.4804 11.4739 23.4267 11.4739 23.1847M15.9771 24.9673C15.6698 24.4941 15.0672 23.4509 15.1159 23.0636" stroke="#4E6E81" stroke-width="1.2" stroke-linecap="round" stroke-linejoin="round"/>
</svg>
