<svg width="31" height="25" viewBox="0 0 31 25" fill="none" xmlns="http://www.w3.org/2000/svg">
<path d="M17.7168 2.18535C17.7168 2.18535 22.2427 5.29106 19.2438 9.08703C17.4739 11.3274 13.8724 10.8323 12.0811 8.95779C10.8372 7.6562 10.4661 5.68952 12.1866 3.51168C13.5993 1.72344 15.8096 1.07869 17.7168 2.18535Z" fill="#F9FAFB"/>
<path d="M13.9112 5.17535C14.2782 4.5781 14.6664 3.06803 16.2191 3.51168M19.2438 9.08703C22.2427 5.29106 17.7168 2.18535 17.7168 2.18535C15.8096 1.07869 13.5993 1.72344 12.1866 3.51168C10.4661 5.68952 10.8372 7.65619 12.0811 8.95779C13.8724 10.8323 17.4739 11.3274 19.2438 9.08703Z" stroke="#4E6E81" stroke-width="1.2" stroke-linecap="round" stroke-linejoin="round"/>
<path d="M9.1659 8.12005C9.1659 8.12005 14.5378 6.99222 15.2116 11.7827C15.6092 14.6101 12.7637 16.8725 10.1708 16.8732C8.37046 16.8736 6.6919 15.7837 6.30537 13.0352C5.988 10.7785 7.04832 8.73486 9.1659 8.12005Z" fill="#F9FAFB" stroke="#4E6E81" stroke-width="1.2" stroke-linejoin="round"/>
<path d="M18.5939 8.12005C18.5939 8.12005 23.9658 6.99222 24.6396 11.7827C25.0372 14.6101 22.1917 16.8725 19.5988 16.8732C17.7985 16.8736 16.1199 15.7837 15.7334 13.0352C15.416 10.7785 16.4763 8.73486 18.5939 8.12005Z" fill="#F9FAFB" stroke="#4E6E81" stroke-width="1.2" stroke-linejoin="round"/>
<path d="M4.48358 14.7438C4.48358 14.7438 9.85552 13.616 10.5292 18.4065C10.9269 21.2338 8.08137 23.4963 5.4885 23.4969C3.68814 23.4974 2.00958 22.4075 1.62305 19.659C1.30568 17.4023 2.366 15.3586 4.48358 14.7438Z" fill="#F9FAFB"/>
<path d="M4.48358 18.7193C4.60589 17.9799 5.2387 16.612 6.79146 17.0557M10.5292 18.4065C9.85552 13.616 4.48358 14.7438 4.48358 14.7438C2.366 15.3586 1.30568 17.4023 1.62305 19.659C2.00958 22.4075 3.68814 23.4974 5.4885 23.4969C8.08137 23.4963 10.9269 21.2338 10.5292 18.4065Z" stroke="#4E6E81" stroke-width="1.2" stroke-linecap="round" stroke-linejoin="round"/>
<path d="M14.157 14.7438C14.157 14.7438 19.529 13.616 20.2027 18.4065C20.6003 21.2338 17.7548 23.4963 15.1619 23.4969C13.3616 23.4974 11.683 22.4075 11.2965 19.659C10.9791 17.4023 12.0394 15.3586 14.157 14.7438Z" fill="#F9FAFB"/>
<path d="M13.446 18.4065C13.5683 17.6671 14.2011 16.2992 15.7539 16.7428M20.2027 18.4065C19.529 13.616 14.157 14.7438 14.157 14.7438C12.0394 15.3586 10.9791 17.4023 11.2965 19.659C11.683 22.4075 13.3616 23.4974 15.1619 23.4969C17.7548 23.4963 20.6003 21.2338 20.2027 18.4065Z" stroke="#4E6E81" stroke-width="1.2" stroke-linecap="round" stroke-linejoin="round"/>
<path d="M23.585 14.7438C23.585 14.7438 28.957 13.616 29.6307 18.4065C30.0283 21.2338 27.1828 23.4963 24.59 23.4969C22.7896 23.4974 21.111 22.4075 20.7245 19.659C20.4071 17.4023 21.4675 15.3586 23.585 14.7438Z" fill="#F9FAFB" stroke="#4E6E81" stroke-width="1.2" stroke-linejoin="round"/>
</svg>
