<svg width="26" height="26" viewBox="0 0 26 26" fill="none" xmlns="http://www.w3.org/2000/svg">
<path d="M2.49489 11.8247L3.97943 13.4948L6.45365 14.0515C6.57737 13.5979 7.25778 12.6907 7.25778 12.6907C7.25778 12.6907 5.8351 12.3608 4.90726 12.1959L3.97943 10.9588M2.49489 11.8247L3.97943 10.9588M2.49489 11.8247C1.40211 10.1959 0.0206664 6.98762 3.23716 7.18556M3.97943 10.9588C4.86638 10.0049 5.94349 8.24415 4.59797 7.50888M3.23716 7.18556C2.47192 3.76392 2.73275 2.16954 6.76292 1C5.95411 2.44962 5.59289 3.26206 5.21653 4.71134C6.52203 3.55153 7.1946 3.03805 8.37116 2.17526C8.27923 4.88014 8.12865 6.35207 4.59797 7.50888M3.23716 7.18556C3.843 7.22284 4.28572 7.33825 4.59797 7.50888" stroke="#4E6E81" stroke-width="1.2" stroke-linejoin="round"/>
<path d="M23.2784 11.8247L23.7767 12.159C23.7615 12.1816 23.7449 12.2031 23.7269 12.2234L23.2784 11.8247ZM21.7939 13.4948L22.2423 13.8935C22.1589 13.9873 22.0481 14.0526 21.9256 14.0802L21.7939 13.4948ZM19.3196 14.0515L18.8692 14.4479C18.8088 14.3792 18.7649 14.2976 18.7408 14.2094L19.3196 14.0515ZM20.866 12.1959L21.346 12.5559C21.2548 12.6775 21.1208 12.76 20.9711 12.7866L20.866 12.1959ZM19.0104 1L18.4864 1.29234C18.3679 1.07985 18.3894 0.816796 18.5409 0.626396C18.6924 0.435995 18.9439 0.355957 19.1776 0.423773L19.0104 1ZM20.5568 4.71134L21.1375 4.56053C21.2039 4.81619 21.0953 5.08519 20.87 5.22309C20.6447 5.36098 20.3557 5.33532 20.1583 5.15989L20.5568 4.71134ZM17.4021 2.17526L16.8025 2.19564C16.7947 1.966 16.9187 1.75207 17.1219 1.64474C17.325 1.53741 17.5717 1.55553 17.7569 1.69141L17.4021 2.17526ZM13.0722 22.2783L12.9923 21.6837C13.0752 21.6726 13.1595 21.6789 13.2398 21.7022L13.0722 22.2783ZM15.6083 11.5326L15.4248 12.1038L15.6083 11.5326ZM16.598 8.36082L16.8088 8.92258L16.598 8.36082ZM18.2063 9.53608L17.607 9.5059L18.2063 9.53608ZM9.54647 8.6701L9.99377 8.2702L9.54647 8.6701ZM7.81451 9.35051L7.21462 9.36201L7.81451 9.35051ZM19.7291 15.9072L19.1402 15.7923L19.7291 15.9072ZM21.4228 16.835L21.6796 17.3773C21.5058 17.4596 21.3031 17.4536 21.1345 17.3613L21.4228 16.835ZM23.5164 15.1794C23.8159 15.0375 24.1737 15.1653 24.3155 15.4648C24.4574 15.7643 24.3296 16.122 24.0301 16.2639L23.5164 15.1794ZM20.866 19.1237L20.9499 18.5296C21.0343 18.5415 21.1151 18.5712 21.1871 18.6168L20.866 19.1237ZM23.0427 19.7921C23.3227 19.9694 23.4059 20.34 23.2286 20.62C23.0513 20.8999 22.6806 20.9832 22.4007 20.8059L23.0427 19.7921ZM19.4434 22.0309L19.6937 21.4856C19.7947 21.532 19.8809 21.6056 19.9426 21.6981L19.4434 22.0309ZM21.922 24.6672C22.1058 24.9429 22.0313 25.3154 21.7556 25.4992C21.4799 25.683 21.1073 25.6085 20.9235 25.3328L21.922 24.6672ZM6.57739 21.9072L6.08297 21.5673C6.14675 21.4745 6.23534 21.4016 6.33862 21.3568L6.57739 21.9072ZM5.03058 25.2162C4.84285 25.4893 4.4693 25.5584 4.19624 25.3707C3.92318 25.183 3.854 24.8094 4.04173 24.5364L5.03058 25.2162ZM7.38152 18.7128L7.83761 18.3229L7.38152 18.7128ZM4.65987 19.1856L4.29695 18.7078C4.37337 18.6497 4.46262 18.6108 4.55718 18.5944L4.65987 19.1856ZM3.35269 20.9319C3.08881 21.1324 2.71241 21.0809 2.51197 20.8171C2.31153 20.5532 2.36296 20.1768 2.62684 19.9763L3.35269 20.9319ZM3.97946 16.8969L4.24497 17.435C4.0602 17.5261 3.84158 17.5161 3.66592 17.4085L3.97946 16.8969ZM1.74839 16.2332C1.46587 16.06 1.37721 15.6906 1.55037 15.4081C1.72353 15.1256 2.09294 15.0369 2.37547 15.2101L1.74839 16.2332ZM23.7269 12.2234L22.2423 13.8935L21.3454 13.0962L22.83 11.4261L23.7269 12.2234ZM21.9256 14.0802L19.4514 14.6369L19.1879 13.4662L21.6622 12.9095L21.9256 14.0802ZM18.7408 14.2094C18.7078 14.0884 18.5624 13.8249 18.3692 13.5296C18.2819 13.3964 18.1978 13.2756 18.1353 13.188C18.1042 13.1443 18.0787 13.1093 18.0612 13.0855C18.0525 13.0736 18.0458 13.0645 18.0414 13.0586C18.0392 13.0556 18.0376 13.0535 18.0366 13.0522C18.0361 13.0515 18.0358 13.051 18.0356 13.0508C18.0355 13.0507 18.0354 13.0506 18.0354 13.0506C18.0354 13.0506 18.0354 13.0506 18.0354 13.0506C18.0355 13.0506 18.0355 13.0506 18.0355 13.0507C18.0355 13.0507 18.0355 13.0507 18.5155 12.6907C18.9955 12.3307 18.9955 12.3308 18.9956 12.3308C18.9956 12.3308 18.9956 12.3309 18.9957 12.3309C18.9957 12.331 18.9958 12.3311 18.9959 12.3312C18.996 12.3314 18.9962 12.3316 18.9964 12.332C18.9969 12.3326 18.9976 12.3334 18.9984 12.3345C18.9999 12.3366 19.0022 12.3396 19.005 12.3434C19.0106 12.351 19.0187 12.3619 19.0288 12.3757C19.049 12.4033 19.0777 12.4426 19.1122 12.4911C19.1812 12.5878 19.2749 12.7222 19.3732 12.8724C19.5511 13.1442 19.8078 13.5611 19.8985 13.8937L18.7408 14.2094ZM18.5155 12.6907C18.38 12.1062 18.38 12.1062 18.38 12.1062C18.38 12.1062 18.3801 12.1062 18.3801 12.1062C18.3801 12.1062 18.3802 12.1062 18.3803 12.1061C18.3805 12.1061 18.3808 12.106 18.3812 12.1059C18.3819 12.1058 18.383 12.1055 18.3844 12.1052C18.3872 12.1045 18.3914 12.1036 18.3968 12.1023C18.4077 12.0998 18.4237 12.0961 18.4443 12.0914C18.4855 12.082 18.5452 12.0683 18.6197 12.0514C18.7687 12.0177 18.9771 11.9709 19.2147 11.919C19.6878 11.8156 20.285 11.6898 20.761 11.6051L20.9711 12.7866C20.5193 12.8669 19.9411 12.9885 19.471 13.0913C19.2369 13.1425 19.0316 13.1885 18.8849 13.2218C18.8115 13.2384 18.7529 13.2518 18.7127 13.261C18.6925 13.2656 18.677 13.2692 18.6666 13.2716C18.6614 13.2728 18.6575 13.2737 18.6549 13.2743C18.6535 13.2746 18.6526 13.2749 18.6519 13.275C18.6516 13.2751 18.6514 13.2751 18.6512 13.2752C18.6512 13.2752 18.6511 13.2752 18.6511 13.2752C18.6511 13.2752 18.6511 13.2752 18.6511 13.2752C18.6511 13.2752 18.6511 13.2752 18.5155 12.6907ZM20.386 11.8359L21.3139 10.5988L22.2739 11.3188L21.346 12.5559L20.386 11.8359ZM22.0962 10.4405L23.5807 11.3065L22.9761 12.343L21.4915 11.477L22.0962 10.4405ZM22.7801 11.4905C23.3121 10.6976 23.8582 9.59429 23.9252 8.77139C23.9577 8.3724 23.8702 8.15078 23.7437 8.02726C23.6115 7.89823 23.2982 7.7398 22.573 7.78443L22.4993 6.58669C23.3824 6.53235 24.1026 6.70073 24.5818 7.16848C25.0667 7.64173 25.1687 8.28686 25.1213 8.8688C25.0285 10.0078 24.3375 11.323 23.7767 12.159L22.7801 11.4905ZM21.9506 7.05461C22.3365 5.32908 22.4029 4.27276 22.032 3.51082C21.6766 2.7805 20.8257 2.15154 18.8432 1.57623L19.1776 0.423773C21.2253 1.018 22.5198 1.77099 23.111 2.98566C23.6868 4.1687 23.501 5.62039 23.1217 7.31651L21.9506 7.05461ZM19.5343 0.707657C20.3606 2.18863 20.745 3.04909 21.1375 4.56053L19.976 4.86215C19.6158 3.47504 19.2777 2.7106 18.4864 1.29234L19.5343 0.707657ZM20.1583 5.15989C18.8705 4.01586 18.2135 3.51425 17.0473 2.6591L17.7569 1.69141C18.9439 2.56184 19.632 3.0872 20.9553 4.26278L20.1583 5.15989ZM22.573 7.78443C22.0173 7.81862 21.6705 7.922 21.463 8.03539L20.8876 6.98236C21.3046 6.75449 21.8433 6.62706 22.4993 6.58669L22.573 7.78443ZM21.463 8.03539C21.2578 8.14753 21.1886 8.26708 21.1599 8.3763C21.1252 8.50868 21.1323 8.7029 21.218 8.96616C21.3916 9.4996 21.8177 10.1032 22.2333 10.5502L21.3545 11.3673C20.8831 10.8604 20.3272 10.1067 20.0769 9.3375C19.9506 8.94944 19.8853 8.506 19.9993 8.07165C20.1193 7.61413 20.42 7.23787 20.8876 6.98236L21.463 8.03539ZM18.0018 2.15488C18.0488 3.53933 18.1164 4.42458 18.519 5.12291C18.901 5.78545 19.6535 6.37887 21.3621 6.9387L20.9885 8.07905C19.1665 7.48209 18.0784 6.76113 17.4794 5.72229C16.9011 4.71922 16.8474 3.51606 16.8025 2.19564L18.0018 2.15488ZM18.2706 13.2385C17.2134 12.7658 16.2885 12.3813 15.4248 12.1038L15.7918 10.9613C16.7195 11.2593 17.6926 11.6655 18.7604 12.143L18.2706 13.2385ZM15.0963 11.2198L15.9004 9.90367L16.9244 10.5293L16.1203 11.8454L15.0963 11.2198ZM16.4124 10.2165C15.8509 10.4277 15.8508 10.4276 15.8507 10.4274C15.8507 10.4274 15.8507 10.4272 15.8506 10.4271C15.8505 10.4269 15.8504 10.4266 15.8503 10.4263C15.8501 10.4258 15.8499 10.4251 15.8496 10.4244C15.849 10.4229 15.8484 10.421 15.8475 10.4187C15.8459 10.4142 15.8437 10.4082 15.841 10.4008C15.8357 10.386 15.8285 10.3654 15.82 10.3399C15.8029 10.2891 15.78 10.2178 15.7555 10.1318C15.7073 9.96237 15.6492 9.72433 15.619 9.46782C15.5898 9.2201 15.5802 8.90623 15.6655 8.60823C15.7565 8.29027 15.9702 7.95553 16.3872 7.79907L16.8088 8.92258C16.8083 8.92276 16.8122 8.92129 16.8181 8.91704C16.824 8.91281 16.8286 8.90825 16.8313 8.90485C16.8366 8.89849 16.8288 8.90476 16.8192 8.93843C16.7971 9.01561 16.7896 9.1475 16.8108 9.32738C16.8309 9.49848 16.8717 9.66988 16.9096 9.80302C16.9282 9.86831 16.9453 9.92154 16.9574 9.9574C16.9634 9.97527 16.9681 9.98866 16.971 9.9969C16.9725 10.001 16.9735 10.0038 16.974 10.0052C16.9743 10.006 16.9744 10.0063 16.9744 10.0063C16.9744 10.0063 16.9744 10.0062 16.9743 10.0061C16.9743 10.006 16.9743 10.0059 16.9742 10.0057C16.9742 10.0057 16.9741 10.0056 16.9741 10.0055C16.9741 10.0054 16.974 10.0053 16.4124 10.2165ZM16.3872 7.79907C16.9863 7.57428 17.6085 7.75202 18.0439 8.0702C18.4793 8.38838 18.8377 8.92722 18.8055 9.56626L17.607 9.5059C17.614 9.36804 17.5323 9.18261 17.3359 9.03907C17.1395 8.89553 16.938 8.87409 16.8088 8.92258L16.3872 7.79907ZM18.8055 9.56626C18.7822 10.0282 18.5003 10.3291 18.2167 10.4987C17.9498 10.6584 17.6384 10.7334 17.3863 10.7726C17.1244 10.8133 16.8716 10.8233 16.6891 10.824C16.5965 10.8243 16.519 10.8222 16.4636 10.82C16.4359 10.8188 16.4135 10.8177 16.3974 10.8167C16.3893 10.8163 16.3828 10.8159 16.378 10.8155C16.3755 10.8154 16.3735 10.8152 16.3719 10.8151C16.3712 10.8151 16.3705 10.815 16.3699 10.815C16.3696 10.815 16.3693 10.8149 16.3691 10.8149C16.369 10.8149 16.3688 10.8149 16.3688 10.8149C16.3686 10.8149 16.3685 10.8149 16.4124 10.2165C16.4564 9.6181 16.4563 9.6181 16.4562 9.61809C16.4561 9.61808 16.456 9.61808 16.4559 9.61807C16.4558 9.61806 16.4557 9.61805 16.4556 9.61805C16.4555 9.61804 16.4554 9.61803 16.4555 9.61804C16.4556 9.61804 16.4561 9.61808 16.457 9.61814C16.4588 9.61826 16.4621 9.61847 16.4669 9.61875C16.4765 9.6193 16.4918 9.62012 16.5121 9.62093C16.5527 9.62258 16.6125 9.62422 16.6849 9.62397C16.8324 9.62346 17.0203 9.61509 17.2019 9.58686C17.393 9.55713 17.5276 9.51261 17.6008 9.46884C17.6574 9.43499 17.6099 9.44853 17.607 9.5059L18.8055 9.56626ZM15.4248 12.1038C13.6878 11.5459 12.2081 11.4234 10.4541 11.9264L10.1233 10.7729C12.1528 10.1909 13.8799 10.3473 15.7918 10.9613L15.4248 12.1038ZM10.4541 11.9264C9.57036 12.1799 8.60291 12.5964 7.48699 13.2154L6.90491 12.166C8.07602 11.5164 9.12889 11.0581 10.1233 10.7729L10.4541 11.9264ZM9.81481 11.7176L8.88697 10.5226L9.83482 9.78668L10.7627 10.9817L9.81481 11.7176ZM9.3609 10.1546C8.83475 9.86624 8.83469 9.86635 8.83463 9.86646C8.83461 9.8665 8.83456 9.8666 8.83452 9.86667C8.83445 9.86679 8.83439 9.86691 8.83434 9.867C8.83423 9.8672 8.83416 9.86733 8.83412 9.8674C8.83404 9.86754 8.83409 9.86745 8.83427 9.86712C8.83462 9.86647 8.83547 9.86488 8.83678 9.86242C8.83938 9.85748 8.84378 9.84907 8.84961 9.83757C8.8613 9.81448 8.87852 9.77944 8.89848 9.73554C8.93914 9.64615 8.98766 9.52773 9.02504 9.4032C9.06383 9.274 9.08217 9.16573 9.08176 9.08904C9.08134 9.01019 9.06258 9.02908 9.09916 9.07L9.99377 8.2702C10.2251 8.52891 10.2805 8.84226 10.2817 9.0826C10.283 9.32508 10.2307 9.56072 10.1744 9.74822C10.1167 9.94037 10.0458 10.1114 9.99082 10.2323C9.96297 10.2936 9.93831 10.3439 9.92008 10.3799C9.91095 10.3979 9.90337 10.4124 9.89775 10.4231C9.89493 10.4284 9.8926 10.4328 9.8908 10.4361C9.8899 10.4378 9.88914 10.4392 9.88851 10.4403C9.88819 10.4409 9.88791 10.4414 9.88767 10.4419C9.88755 10.4421 9.88743 10.4423 9.88733 10.4425C9.88728 10.4426 9.88721 10.4427 9.88718 10.4428C9.88711 10.4429 9.88704 10.443 9.3609 10.1546ZM9.09916 9.07C9.09816 9.06888 9.09476 9.06506 9.08335 9.05986C9.07071 9.05409 9.04738 9.04641 9.01064 9.04279C8.93359 9.03519 8.82645 9.04858 8.71303 9.09314C8.5996 9.1377 8.512 9.20081 8.46073 9.25883C8.43628 9.28649 8.42441 9.30799 8.41908 9.32082C8.41426 9.3324 8.41437 9.33752 8.4144 9.33901L7.21462 9.36201C7.20057 8.62938 7.80062 8.1623 8.27424 7.97624C8.74787 7.79017 9.50539 7.72392 9.99377 8.2702L9.09916 9.07ZM8.4144 9.33901C8.41276 9.25348 8.35606 9.23491 8.41758 9.28025C8.48317 9.32858 8.60111 9.38371 8.76565 9.43328C8.92249 9.48052 9.08517 9.51204 9.21263 9.53172C9.27527 9.54138 9.32692 9.54781 9.3619 9.55174C9.37934 9.5537 9.3925 9.55502 9.40063 9.55579C9.4047 9.55618 9.4075 9.55643 9.40894 9.55656C9.40966 9.55662 9.41005 9.55665 9.41008 9.55665C9.41009 9.55666 9.41002 9.55665 9.40985 9.55664C9.40977 9.55663 9.40967 9.55662 9.40954 9.55661C9.40948 9.55661 9.40937 9.5566 9.40934 9.55659C9.40922 9.55659 9.4091 9.55658 9.3609 10.1546C9.3127 10.7527 9.31256 10.7527 9.31242 10.7527C9.31237 10.7527 9.31222 10.7527 9.31211 10.7527C9.31189 10.7526 9.31165 10.7526 9.31138 10.7526C9.31085 10.7525 9.31022 10.7525 9.3095 10.7524C9.30805 10.7523 9.30624 10.7522 9.30406 10.752C9.2997 10.7516 9.29389 10.7511 9.28672 10.7504C9.27239 10.749 9.25258 10.747 9.22807 10.7443C9.17915 10.7388 9.11091 10.7302 9.02959 10.7177C8.86914 10.6929 8.64767 10.651 8.41954 10.5823C8.19911 10.5159 7.93127 10.4125 7.70569 10.2463C7.47604 10.077 7.22278 9.78782 7.21462 9.36201L8.4144 9.33901ZM19.7701 13.6552C20.3727 14.34 20.4799 15.1924 20.3179 16.0222L19.1402 15.7923C19.2536 15.2114 19.1568 14.7748 18.8692 14.4479L19.7701 13.6552ZM20.0173 15.381L21.711 16.3088L21.1345 17.3613L19.4408 16.4334L20.0173 15.381ZM21.1659 16.2928L23.5164 15.1794L24.0301 16.2639L21.6796 17.3773L21.1659 16.2928ZM20.3179 16.0222C20.1149 17.0621 19.4786 18.1545 18.7077 19.1256L17.7679 18.3795C18.4879 17.4725 18.9905 16.5589 19.1402 15.7923L20.3179 16.0222ZM18.3217 18.1585L20.9499 18.5296L20.7821 19.7178L18.1539 19.3467L18.3217 18.1585ZM21.1871 18.6168L23.0427 19.7921L22.4007 20.8059L20.545 19.6306L21.1871 18.6168ZM18.7077 19.1256C18.1391 19.8419 17.4756 20.5194 16.8026 21.0955L16.0222 20.1839C16.6411 19.6541 17.2504 19.0314 17.7679 18.3795L18.7077 19.1256ZM16.8026 21.0955C16.1245 21.6761 15.4214 22.1668 14.7807 22.4894C14.4605 22.6506 14.1411 22.7774 13.8376 22.8484C13.5404 22.9178 13.2134 22.9443 12.9047 22.8545L13.2398 21.7022C13.2755 21.7126 13.3751 21.7241 13.5646 21.6798C13.7479 21.637 13.9755 21.5513 14.241 21.4176C14.7716 21.1505 15.3941 20.7216 16.0222 20.1839L16.8026 21.0955ZM16.6627 20.0944L19.6937 21.4856L19.1931 22.5762L16.1621 21.185L16.6627 20.0944ZM19.9426 21.6981L21.922 24.6672L20.9235 25.3328L18.9441 22.3637L19.9426 21.6981ZM13.1522 22.873C12.8787 22.9098 12.5773 22.8616 12.2964 22.7867C12.0041 22.7087 11.6811 22.587 11.3441 22.4336C10.6696 22.1264 9.89978 21.6738 9.14608 21.1246L9.85273 20.1548C10.5506 20.6632 11.2507 21.0725 11.8415 21.3415C12.1371 21.4761 12.3956 21.5712 12.6057 21.6272C12.8273 21.6863 12.9493 21.6895 12.9923 21.6837L13.1522 22.873ZM9.73818 21.1902L6.81616 22.4577L6.33862 21.3568L9.26064 20.0893L9.73818 21.1902ZM7.07182 22.2471L5.03058 25.2162L4.04173 24.5364L6.08297 21.5673L7.07182 22.2471ZM9.14608 21.1246C8.3584 20.5507 7.57317 19.8604 6.92543 19.1026L7.83761 18.3229C8.41211 18.995 9.12361 19.6235 9.85273 20.1548L9.14608 21.1246ZM7.48421 19.3039L4.76256 19.7767L4.55718 18.5944L7.27883 18.1216L7.48421 19.3039ZM5.02279 19.6634L3.35269 20.9319L2.62684 19.9763L4.29695 18.7078L5.02279 19.6634ZM6.92543 19.1026C6.1347 18.1775 5.50238 17.0973 5.38812 15.9676L6.58203 15.8468C6.66104 16.6281 7.11931 17.4826 7.83761 18.3229L6.92543 19.1026ZM5.38812 15.9676C5.31068 15.2019 5.47431 14.433 5.95572 13.7168L6.95164 14.3863C6.63371 14.8592 6.53139 15.3462 6.58203 15.8468L5.38812 15.9676ZM6.25058 16.4453L4.24497 17.435L3.71395 16.3588L5.71956 15.3692L6.25058 16.4453ZM3.66592 17.4085L1.74839 16.2332L2.37547 15.2101L4.29299 16.3853L3.66592 17.4085Z" fill="#4E6E81"/>
</svg>
