<svg width="18" height="18" viewBox="0 0 18 18" fill="none" xmlns="http://www.w3.org/2000/svg">
<path fill-rule="evenodd" clip-rule="evenodd" d="M15 1.5H3C2.17157 1.5 1.5 2.17157 1.5 3V4.75H16.5V3C16.5 2.17157 15.8284 1.5 15 1.5ZM1.5 10.5039V6.25H5.53508V10.5039H1.5ZM1.5 12.0039V15C1.5 15.8284 2.17157 16.5 3 16.5H5.53508V12.0039H1.5ZM7.03508 12.0039V16.5H10.9966V12.0039H7.03508ZM12.4966 12.0039V16.5H15C15.8284 16.5 16.5 15.8284 16.5 15V12.0039H12.4966ZM16.5 10.5039H12.4966V6.25H16.5V10.5039ZM18 10.5039V12.0039V15C18 16.6569 16.6569 18 15 18H3C1.34315 18 0 16.6569 0 15V3C0 1.34315 1.34315 0 3 0H15C16.6569 0 18 1.34315 18 3V4.75V6.25V10.5039ZM10.9966 10.5039H7.03508V6.25H10.9966V10.5039Z" fill="#4E6E81"/>
</svg>
