<svg width="14" height="22" viewBox="0 0 14 22" fill="none" xmlns="http://www.w3.org/2000/svg">
<path d="M1 14V19C1 22 5 22 5 19V14M5 17.5H1" stroke="#4E6E81" stroke-width="1.5" stroke-linecap="round" stroke-linejoin="round"/>
<path d="M1 2C1 1.73478 1.10536 1.48043 1.29289 1.29289C1.48043 1.10536 1.73478 1 2 1H10.3175C10.477 1 10.6335 1.0375 10.7615 1.1325C11.271 1.5125 12.599 2.791 13 6C13.3865 9.091 12.3155 12.182 11.809 13.4275C11.665 13.7825 11.3165 14 10.934 14H1V2Z" stroke="#4E6E81" stroke-width="1.5"/>
<path d="M5 5C5.55228 5 6 4.55228 6 4C6 3.44772 5.55228 3 5 3C4.44772 3 4 3.44772 4 4C4 4.55228 4.44772 5 5 5Z" fill="#4E6E81"/>
</svg>
