<svg width="19" height="18" viewBox="0 0 19 18" fill="none" xmlns="http://www.w3.org/2000/svg">
<path fill-rule="evenodd" clip-rule="evenodd" d="M16.0532 2.4333C16.1972 1.88346 16.694 1.5 17.2624 1.5H19V0H17.2624C16.012 0 14.9189 0.843616 14.6021 2.05326L14.0923 4H0.750007C0.516682 4 0.296647 4.10859 0.154719 4.29379C0.0127904 4.47898 -0.0348634 4.71968 0.0257949 4.94498L1.17808 9.2249C1.61889 10.8622 3.10354 12 4.79914 12H11.4251C12.6756 12 13.7686 11.1564 14.0854 9.94674L16.0532 2.4333ZM1.72864 5.5H13.6994L12.6343 9.5667C12.4903 10.1165 11.9935 10.5 11.4251 10.5H4.79914C3.78178 10.5 2.89099 9.81732 2.62651 8.83494L1.72864 5.5ZM3.5 16.5C4.05228 16.5 4.5 16.0523 4.5 15.5C4.5 14.9477 4.05228 14.5 3.5 14.5C2.94771 14.5 2.5 14.9477 2.5 15.5C2.5 16.0523 2.94771 16.5 3.5 16.5ZM3.5 18C4.88071 18 6 16.8807 6 15.5C6 14.1193 4.88071 13 3.5 13C2.11929 13 0.999999 14.1193 0.999999 15.5C0.999999 16.8807 2.11929 18 3.5 18ZM12.5 16.5C13.0523 16.5 13.5 16.0523 13.5 15.5C13.5 14.9477 13.0523 14.5 12.5 14.5C11.9477 14.5 11.5 14.9477 11.5 15.5C11.5 16.0523 11.9477 16.5 12.5 16.5ZM12.5 18C13.8807 18 15 16.8807 15 15.5C15 14.1193 13.8807 13 12.5 13C11.1193 13 10 14.1193 10 15.5C10 16.8807 11.1193 18 12.5 18Z" fill="#0E1117"/>
</svg>
