<svg width="23" height="26" viewBox="0 0 23 26" fill="none" xmlns="http://www.w3.org/2000/svg">
<path d="M4.74739 1C-2.49096 7.36808 3.86451 10.3234 10.3241 13.586M18.5663 22.5032C17.9491 22.491 17.4364 22.5318 16.9539 22.6106C16.5105 22.6831 16.8513 23.4118 17.1245 23.7685V23.7685C17.5396 24.3106 18.0718 24.6541 18.5981 24.2192C18.9743 23.9084 19.3327 23.489 19.6919 22.8599M18.5663 22.5032C18.985 22.7705 19.2369 22.8167 19.6919 22.8599M18.5663 22.5032C18.9532 20.9139 18.6859 19.6177 18.0547 18.5553M19.6919 22.8599C21.1121 21.0092 21.5632 19.254 21.4041 17.6624M9.40836 1.86624C4.08868 3.69119 2.2354 5.18398 2.01379 7.87898C2.84995 7.8439 3.64492 7.82635 4.40184 7.83058M10.3241 13.586C12.833 12.7982 13.0802 11.8137 12.7851 9.71337M10.3241 13.586C10.266 13.7938 11.0799 14.0664 12.2223 14.5147M12.7851 9.71337C13.1034 9.39638 14.378 9.71884 15.8548 10.5377M12.7851 9.71337C10.8988 8.52594 8.63707 8.00046 5.79908 7.8661M15.8548 10.5377C15.8498 12.3093 15.6953 13.0676 14.8827 13.586M15.8548 10.5377C16.7401 11.0286 17.6981 11.6979 18.5663 12.5148M18.5663 12.5148C18.2816 13.824 17.9368 14.4495 16.7245 15.2166M18.5663 12.5148C19.3163 13.2205 19.9993 14.0363 20.5105 14.9424M20.5105 14.9424C19.9935 15.7485 19.6643 16.1668 18.8222 16.6943M20.5105 14.9424C20.9817 15.7775 21.3069 16.6894 21.4041 17.6624M21.4041 17.6624C20.8764 18.193 20.5677 18.423 19.9477 18.4777M12.2223 14.5147V14.5147C11.9909 14.791 11.8641 15.1398 11.8641 15.5002V17.4586M12.2223 14.5147C12.8083 14.7446 13.4808 15.0208 14.1664 15.3582M14.1664 15.3582V15.3582C14.0006 15.5306 13.8971 15.7534 13.8722 15.9912L13.6548 18.0701M14.1664 15.3582C15.1293 15.8321 16.118 16.4266 16.9292 17.1833M16.9292 17.1833V17.1833C16.2671 17.3529 15.7511 17.8715 15.5848 18.5343L15.4455 19.0892M16.9292 17.1833C17.3666 17.5913 17.7524 18.0465 18.0547 18.5553M18.0547 18.5553L17.534 18.7643C17.035 18.9646 16.6853 19.4214 16.6222 19.9554V19.9554M4.40184 7.83058C4.40184 7.83058 4.34335 6.96178 5.11078 6.96178C5.56371 6.96178 5.85625 7.45877 5.79908 7.8661M4.40184 7.83058C4.45164 8.17682 4.74925 8.38853 5.11078 8.38853C5.55107 8.38853 5.75938 8.14893 5.79908 7.8661" stroke="#4E6E81" stroke-width="1.2" stroke-linecap="round" stroke-linejoin="round"/>
</svg>
