<svg width="15" height="22" viewBox="0 0 15 22" fill="none" xmlns="http://www.w3.org/2000/svg">
<path d="M9.33445 6.5C9.33445 5.8 9.53445 5.3 9.63445 5H10.2344L11.1344 2.5H11.9344V1H2.93445V2.5H3.73445L4.63445 5H5.23445C5.43445 5.3 5.53445 5.8 5.53445 6.5C5.53445 7.8 1.43445 12.7 1.43445 16.6V18.6C1.43445 20 4.13445 20.9 7.43445 20.9C10.7344 20.9 13.4344 20 13.4344 18.6V16.6C13.4344 12.7 9.33445 7.8 9.33445 6.5ZM7.43445 14C6.90402 14 6.39531 13.7893 6.02024 13.4142C5.64516 13.0391 5.43445 12.5304 5.43445 12C5.43445 11.4696 5.64516 10.9609 6.02024 10.5858C6.39531 10.2107 6.90402 10 7.43445 10C7.96488 10 8.47359 10.2107 8.84866 10.5858C9.22373 10.9609 9.43445 11.4696 9.43445 12C9.43445 12.5304 9.22373 13.0391 8.84866 13.4142C8.47359 13.7893 7.96488 14 7.43445 14Z" stroke="#4E6E81" stroke-width="1.2" stroke-linejoin="round"/>
</svg>
