<svg width="16" height="14" viewBox="0 0 16 14" fill="none" xmlns="http://www.w3.org/2000/svg">
<path fill-rule="evenodd" clip-rule="evenodd" d="M13.9756 0.649378C14.1609 0.571371 14.3638 0.544467 14.563 0.571466C14.7623 0.598465 14.9507 0.678379 15.1086 0.802892C15.2665 0.927405 15.3881 1.09196 15.4608 1.27944C15.5336 1.46692 15.5547 1.67046 15.5221 1.86888L13.8211 12.1866C13.6561 13.1819 12.5641 13.7526 11.6513 13.2569C10.8878 12.8421 9.75381 12.2031 8.73381 11.5364C8.22381 11.2026 6.66156 10.1339 6.85356 9.37338C7.01856 8.72313 9.64356 6.27963 11.1436 4.82688C11.7323 4.25613 11.4638 3.92688 10.7686 4.45188C9.04206 5.75538 6.27006 7.73763 5.35356 8.29563C4.54506 8.78763 4.12356 8.87163 3.61956 8.78763C2.70006 8.63463 1.84731 8.39763 1.15131 8.10888C0.210807 7.71888 0.256557 6.42588 1.15056 6.04938L13.9756 0.649378Z" fill="#445371"/>
</svg>
