<svg width="18" height="20" viewBox="0 0 18 20" fill="none" xmlns="http://www.w3.org/2000/svg">
<path d="M15.3769 3.58693C14.5476 2.74927 13.5599 2.08512 12.4712 1.6332C11.3826 1.18129 10.2149 0.95066 9.03618 0.954766C4.09749 0.954766 0.0723619 4.97989 0.0723619 9.91858C0.0723619 11.5015 0.488442 13.0392 1.26633 14.396L0 19.0452L4.74874 17.797C6.0603 18.5115 7.53467 18.8914 9.03618 18.8914C13.9749 18.8914 18 14.8663 18 9.92763C18 7.53064 17.0683 5.27838 15.3769 3.58693ZM9.03618 17.3718C7.69749 17.3718 6.38593 17.01 5.23719 16.3316L4.96583 16.1688L2.14372 16.9105L2.89447 14.1608L2.71357 13.8804C1.96982 12.6927 1.5749 11.3199 1.57387 9.91858C1.57387 5.81205 4.9206 2.46532 9.02713 2.46532C11.0171 2.46532 12.8894 3.24321 14.2915 4.65426C14.9857 5.34528 15.5358 6.16722 15.91 7.07244C16.2842 7.97765 16.475 8.94813 16.4714 9.92763C16.4894 14.0342 13.1427 17.3718 9.03618 17.3718ZM13.1246 11.8C12.8985 11.6914 11.795 11.1487 11.596 11.0673C11.3879 10.995 11.2432 10.9588 11.0894 11.1759C10.9357 11.402 10.5106 11.9085 10.3839 12.0533C10.2573 12.207 10.1216 12.2251 9.89548 12.1075C9.66935 11.999 8.94573 11.7548 8.09548 10.995C7.42613 10.398 6.98291 9.66532 6.84724 9.43919C6.7206 9.21306 6.82914 9.09547 6.94673 8.97788C7.04623 8.87838 7.17286 8.71557 7.28141 8.58894C7.38995 8.4623 7.43518 8.3628 7.50754 8.21808C7.5799 8.06431 7.54372 7.93768 7.48945 7.82914C7.43517 7.72059 6.98291 6.61708 6.80201 6.16482C6.6211 5.73065 6.43116 5.78492 6.29548 5.77587H5.86131C5.70754 5.77587 5.47236 5.83014 5.26432 6.05627C5.06533 6.2824 4.48643 6.82512 4.48643 7.92863C4.48643 9.03215 5.29146 10.0995 5.4 10.2442C5.50854 10.398 6.98291 12.6593 9.22613 13.6271C9.7598 13.8623 10.1759 13.998 10.5015 14.0975C11.0352 14.2693 11.5236 14.2422 11.9126 14.1879C12.3467 14.1246 13.2422 13.6452 13.4231 13.1206C13.6131 12.596 13.6131 12.1528 13.5497 12.0533C13.4864 11.9538 13.3508 11.9085 13.1246 11.8Z" fill="#445371"/>
</svg>
