<svg width="48" height="48" viewBox="0 0 48 48" fill="none" xmlns="http://www.w3.org/2000/svg">
<path d="M0 6C0 2.68629 2.68629 0 6 0H42C45.3137 0 48 2.68629 48 6V42C48 45.3137 45.3137 48 42 48H6C2.68629 48 0 45.3137 0 42V6Z" fill="#019F3C" fill-opacity="0.1"/>
<path opacity="0.8" d="M34 24C34 29.5228 29.5228 34 24 34C18.4772 34 14 29.5228 14 24C14 18.4772 18.4772 14 24 14C29.5228 14 34 18.4772 34 24Z" fill="#019F3C"/>
<path fill-rule="evenodd" clip-rule="evenodd" d="M29.561 21.1768L23.061 27.5704C22.7479 27.8784 22.2449 27.8763 21.9343 27.5657L18.9343 24.5657L20.0657 23.4343L22.5047 25.8733L28.439 20.0361L29.561 21.1768Z" fill="white"/>
</svg>
