<svg width="180" height="31" viewBox="0 0 180 31" fill="none" xmlns="http://www.w3.org/2000/svg">
<path d="M179.617 30.1824H172.258V27.3378H176.24V3.3075H172.258V0.462891H179.617V30.1824Z" fill="#4E6E81"/>
<path d="M37.918 30.1814H45.2776V27.3368H41.2953V3.30652H45.2776V0.461914H37.918V30.1814Z" fill="#4E6E81"/>
<path d="M47.6758 25.8208H52.066L54.2759 20.3283H62.1843L64.3939 25.8208H68.7843L59.8292 4.54092H56.6309L47.6758 25.8208ZM55.7878 16.5037L58.23 10.2922L60.6723 16.5037H55.7878ZM77.6232 14.9795V18.6891H86.6074C85.4444 21.3347 82.9439 22.5137 80.3272 22.5137C75.3844 22.5137 72.7095 18.8041 72.7095 15.1809C72.7095 11.845 75.1228 7.9916 80.1527 7.9916C81.1703 7.9916 84.1359 8.10676 85.7932 10.8098H90.5615C88.9624 6.64002 85.0955 4.16699 80.1527 4.16699C72.6222 4.16699 68.7261 10.2059 68.7261 15.3246C68.7261 20.4433 72.3897 26.3385 80.2109 26.3385C88.4392 26.3385 91.5793 20.0407 91.6373 14.9795H77.6232ZM94.2542 25.8208H105.797V21.9962H98.2374V17.1076H105.477V13.283H98.2374V8.36553H105.797V4.54092H94.2542V25.8208ZM109.373 25.8208H113.356V11.4425L122.951 25.8208H126.935V4.54092H122.951V18.9193L113.356 4.54092H109.373V25.8208ZM151.009 10.6372C149.206 6.55382 145.484 4.16699 141.036 4.16699C133.418 4.16699 129.784 10.436 129.784 15.1809C129.784 20.0695 133.447 26.3385 140.978 26.3385C145.659 26.3385 149.119 23.7791 150.892 20.0407H146.269C144.932 21.7661 143.013 22.5137 141.094 22.5137C136.965 22.5137 133.767 19.178 133.767 15.1809C133.767 11.4425 136.762 7.9916 141.065 7.9916C143.624 7.9916 145.397 9.28578 146.473 10.6372H151.009ZM158.627 25.8208H162.61V17.9702L169.675 4.54092H165.314L160.633 14.3468L155.923 4.54092H151.561L158.627 17.9702V25.8208Z" fill="#4E6E81"/>
<path fill-rule="evenodd" clip-rule="evenodd" d="M31.4117 15.3311C31.4117 23.795 24.4744 30.6563 15.9168 30.6563C7.35919 30.6563 0.421875 23.795 0.421875 15.3311C0.421875 6.8672 7.35919 0.00585938 15.9168 0.00585938C24.4744 0.00585938 31.4117 6.8672 31.4117 15.3311ZM25.2543 9.02677C25.2543 11.6962 23.0664 13.8602 20.3674 13.8602C17.6684 13.8602 15.4805 11.6962 15.4805 9.02677C15.4805 6.35735 17.6684 4.19336 20.3674 4.19336C23.0664 4.19336 25.2543 6.35735 25.2543 9.02677Z" fill="#4E6E81"/>
</svg>
