<svg width="60" height="64" viewBox="0 0 60 64" fill="none" xmlns="http://www.w3.org/2000/svg">
<g clip-path="url(#clip0_384_44837)">
<mask id="mask0_384_44837" style="mask-type:luminance" maskUnits="userSpaceOnUse" x="3" y="0" width="53" height="51">
<path d="M55.5948 0H3.83447V50.8235H55.5948V0Z" fill="white"/>
</mask>
<g mask="url(#mask0_384_44837)">
<path d="M29.713 48.3158C41.8715 48.3158 51.7279 38.5104 51.7279 26.4148C51.7279 14.3193 41.8715 4.51392 29.713 4.51392C17.5544 4.51392 7.698 14.3193 7.698 26.4148C7.698 38.5104 17.5544 48.3158 29.713 48.3158Z" stroke="#F33333"/>
<path d="M26.0185 40.6732C26.1048 41.1594 26.1957 41.5135 26.2875 41.7071C26.3335 41.8044 26.3508 41.9552 26.2867 42.0415C21.4136 48.602 20.6938 49.8375 25.4501 50.0705C25.512 50.0736 25.5748 50.0763 25.6386 50.0789C26.7117 50.1244 28.0484 50.1244 29.6626 50.1244C31.9089 50.1244 33.7043 50.1244 35.0761 50.0599C40.5621 49.8011 39.2732 48.5077 32.9582 42.0415C32.8777 41.9588 32.8698 41.7793 32.9077 41.6706C32.9773 41.4714 33.0479 41.131 33.1165 40.6732C30.8394 38.7028 29.2208 38.9593 26.0185 40.6732Z" fill="#F33333"/>
<path d="M25.5647 36.0078C25.6469 37.5749 25.767 38.9385 25.9057 39.9556C25.9416 40.2188 25.9788 40.4589 26.0168 40.6732C29.2192 38.9592 30.8377 38.7027 33.1149 40.6732C33.1469 40.4589 33.1786 40.2188 33.2094 39.9556C33.3284 38.9385 33.4351 37.5753 33.5098 36.0078C31.939 35.1147 29.2361 34.5212 25.5647 36.0078Z" fill="#F33333"/>
<path d="M25.4487 31.4616C25.4489 32.6225 25.4714 33.7515 25.5112 34.8114C25.5267 35.221 25.5447 35.6206 25.565 36.0078C29.2364 34.5212 31.9393 35.1147 33.5101 36.0078C33.5286 35.6206 33.5452 35.221 33.5595 34.8114C33.5966 33.7515 33.6186 32.6225 33.6207 31.4616C30.3854 29.952 28.6014 29.9317 25.4487 31.4616Z" fill="#F33333"/>
<path d="M29.6613 14.9524C29.2333 14.96 28.8453 15.1192 28.4939 15.4071C27.1941 16.4721 26.397 19.2988 25.9461 22.7285C25.8153 23.724 25.7136 24.7702 25.6373 25.8389C25.5472 27.0992 25.4924 28.3908 25.4666 29.6672C25.4544 30.2703 25.4486 30.8701 25.4487 31.4617C28.6014 29.9318 30.3854 29.952 33.6207 31.4617C33.6218 30.8701 33.6176 30.2703 33.6076 29.6672C33.5864 28.3908 33.5389 27.0992 33.4587 25.8389C33.3964 24.8594 33.3145 23.8989 33.2097 22.9789C32.789 19.2844 32.0017 16.2462 30.6539 15.2767C30.3519 15.0594 30.0218 14.946 29.6613 14.9524Z" fill="#F33333"/>
<path d="M25.9475 22.7284C23.657 22.21 18.3541 20.4315 15.4667 17.4646L12.5793 18.0628C18.5942 23.4462 19.5697 23.5659 25.6387 25.8388C25.715 24.7701 25.8167 23.7239 25.9475 22.7284Z" fill="#F33333"/>
<path d="M15.4669 17.4647C16.7384 15.2042 18.5653 10.0648 16.1455 6.94898C16.0476 6.82306 15.8446 6.90552 15.8355 7.06437C15.7296 8.91766 14.1478 10.6961 13.6623 11.0045C12.6087 11.6738 11.0311 4.59053 11.978 3.10882C12.925 1.6271 1.85616 17.457 12.5795 18.0629L15.4669 17.4647Z" fill="#F33333"/>
<path d="M44.3395 16.9862C42.1259 19.3789 35.9981 21.9783 33.2109 22.979C33.3157 23.8989 33.3977 24.8594 33.46 25.8389C37.1716 25.3604 44.3449 20.4555 47.4677 18.0629L44.3395 16.9862Z" fill="#F33333"/>
<path d="M43.5357 6.61071C43.5102 6.58847 43.48 6.57442 43.4463 6.57901C42.3698 6.72569 41.5883 14.8721 44.34 16.9862L47.4682 18.0629C55.7222 14.8508 48.8657 0.0494046 47.4799 3.08199C47.4729 3.09768 47.4675 3.11508 47.4658 3.13224C47.4288 3.49619 46.96 8.00314 46.0585 10.1065C45.9917 10.2628 45.7637 10.2091 45.7338 10.042C45.426 8.33028 43.8042 6.84647 43.5357 6.61071Z" fill="#F33333"/>
<path d="M29.6628 50.1243C28.0486 50.1243 26.7119 50.1243 25.6388 50.0789M29.6628 50.1243L30.1438 46.5352M29.6628 50.1243C31.9092 50.1243 33.7045 50.1243 35.0763 50.0599M25.6388 50.0789C25.575 50.0762 25.5122 50.0735 25.4502 50.0705C20.694 49.8375 21.4138 48.602 26.2868 42.0414C26.351 41.9552 26.3337 41.8043 26.2877 41.707C26.1959 41.5135 26.1049 41.1593 26.0187 40.6732M25.6388 50.0789C26.0577 49.0972 26.8955 47.0137 26.8955 46.5352M35.0763 50.0599C40.5623 49.801 39.2733 48.5077 32.9585 42.0414C32.8779 41.9589 32.8699 41.7793 32.9079 41.6706C32.9774 41.4713 33.0482 41.1309 33.1167 40.6732M35.0763 50.0599C34.5179 49.1243 33.4233 47.0616 33.5117 46.2962M26.0187 40.6732C25.9806 40.4589 25.9435 40.2188 25.9076 39.9557M26.0187 40.6732C29.2211 38.9593 30.8396 38.7028 33.1167 40.6732M33.1167 40.6732C33.1488 40.4589 33.1805 40.2188 33.2112 39.9557M28.8208 16.9862C28.7607 16.5213 28.6546 15.9818 28.4955 15.4071M28.4955 15.4071C27.6987 12.5302 25.5733 8.77134 21.2415 9.09042M28.4955 15.4071C27.1956 16.4721 26.3985 19.2987 25.9477 22.7285M28.4955 15.4071C28.8468 15.1192 29.2349 14.96 29.6628 14.9524C30.0233 14.9461 30.3535 15.0594 30.6555 15.2767M25.9477 22.7285C23.6571 22.2101 18.3543 20.4315 15.4669 17.4647M25.9477 22.7285C25.8169 23.724 25.7151 24.7702 25.6388 25.8389M30.6555 15.2767C31.5375 9.8353 36.0497 8.84152 38.4452 9.09042M30.6555 15.2767C30.5483 15.9384 30.4947 16.6657 30.5051 17.4647M30.6555 15.2767C32.0032 16.2462 32.7905 19.2844 33.2112 22.9789M33.2112 22.9789C33.316 23.8988 33.398 24.8594 33.4603 25.8389M33.2112 22.9789C35.9984 21.9783 42.1262 19.3788 44.3398 16.9862M15.4669 17.4647C16.7384 15.2041 18.5653 10.0648 16.1455 6.94895C16.0476 6.82303 15.8446 6.90548 15.8355 7.06434C15.7295 8.91762 14.1478 10.6961 13.6623 11.0045C12.6087 11.6738 11.0311 4.59051 11.978 3.10879C12.925 1.62706 1.85616 17.457 12.5795 18.0629M15.4669 17.4647L12.5795 18.0629M25.6388 25.8389C19.5699 23.5659 18.5944 23.4463 12.5795 18.0629M25.6388 25.8389C25.5488 27.0992 25.4939 28.3908 25.4682 29.6672M25.4682 29.6672C23.0219 29.6672 22.2238 29.5972 22.0995 29.5556C22.088 29.5517 22.0781 29.5443 22.0679 29.5377L17.7522 26.7961M25.4682 29.6672C25.456 30.2704 25.4502 30.8701 25.4502 31.4617M25.4502 31.4617C25.4504 32.6225 25.473 33.7515 25.5128 34.8115M25.4502 31.4617C28.603 29.9318 30.387 29.952 33.6222 31.4617M25.5128 34.8115H22.1341C22.101 34.8115 22.0686 34.8018 22.041 34.7833L17.7522 31.9401M25.5128 34.8115C25.5283 35.2211 25.5462 35.6206 25.5665 36.0078M33.6222 31.4617C33.6201 32.6225 33.5981 33.7515 33.5611 34.8115M33.6222 31.4617C33.6233 30.8701 33.6192 30.2704 33.6091 29.6672M25.5665 36.0078C25.6488 37.575 25.7689 38.9385 25.9076 39.9557M25.5665 36.0078C29.2379 34.5212 31.9409 35.1147 33.5117 36.0078M25.9076 39.9557H22.1341C22.101 39.9557 22.0686 39.946 22.041 39.9275L17.7522 37.0844M33.5117 36.0078C33.5302 35.6206 33.5467 35.2211 33.5611 34.8115M33.5117 36.0078C33.4369 37.5753 33.3302 38.9385 33.2112 39.9557M33.5611 34.8115H37.6765C37.7071 34.8115 37.7367 34.8031 37.7629 34.7877L41.9336 32.2991M33.6091 29.6672H37.4367C37.4668 29.6672 37.496 29.6592 37.5219 29.6441L41.5726 27.2745M33.6091 29.6672C33.5879 28.3908 33.5405 27.0992 33.4603 25.8389M33.4603 25.8389C37.1719 25.3604 44.3452 20.4554 47.4679 18.0629M33.2112 39.9557H37.6745C37.706 39.9557 37.7374 39.9466 37.7639 39.9299L41.9336 37.3235M47.4679 18.0629C55.7221 14.8508 48.8655 0.0494044 47.4797 3.08199C47.4726 3.09768 47.4673 3.11508 47.4656 3.13224C47.4286 3.49619 46.9597 8.00314 46.0583 10.1065C45.9914 10.2628 45.7636 10.2091 45.7337 10.042C45.4258 8.33028 43.8041 6.84647 43.5355 6.61071C43.51 6.58848 43.4797 6.57442 43.4461 6.57901C42.3696 6.72569 41.5881 14.8721 44.3398 16.9862M47.4679 18.0629L44.3398 16.9862" stroke="#3C2828" stroke-linecap="round" stroke-linejoin="round"/>
<path d="M8.98817 22.8739L8.50656 21.3994C8.30533 20.7834 7.42917 20.7834 7.22794 21.3994L6.74635 22.8739H5.1879C4.53672 22.8739 4.26596 23.7029 4.79279 24.0837L6.0536 24.9949L5.57201 26.4695C5.37079 27.0856 6.07962 27.5978 6.60644 27.2171L7.86725 26.3058L9.12806 27.2171C9.65492 27.5978 10.3637 27.0856 10.1625 26.4695L9.68089 24.9949L10.9417 24.0837C11.4685 23.7029 11.1978 22.8739 10.5466 22.8739H8.98817Z" fill="#FFC700" stroke="#3C2828"/>
<path d="M12.3499 35.9141L11.8684 34.4396C11.6672 33.8234 10.791 33.8234 10.5897 34.4396L10.1081 35.9141H8.54973C7.89852 35.9141 7.62779 36.743 8.1546 37.1239L9.41541 38.035L8.93383 39.5096C8.73261 40.1258 9.44142 40.6381 9.9683 40.2573L11.229 39.3461L12.4899 40.2573C13.0167 40.6381 13.7255 40.1258 13.5243 39.5096L13.0428 38.035L14.3035 37.1239C14.8303 36.743 14.5596 35.9141 13.9084 35.9141H12.3499Z" fill="#FFC700" stroke="#3C2828"/>
<path d="M52.6808 22.8739L52.1991 21.3994C51.9978 20.7834 51.1219 20.7834 50.9206 21.3994L50.439 22.8739H48.8804C48.2294 22.8739 47.9585 23.7029 48.4855 24.0837L49.7463 24.9949L49.2646 26.4695C49.0633 27.0856 49.7721 27.5978 50.2991 27.2171L51.5599 26.3058L52.8206 27.2171C53.3476 27.5978 54.0565 27.0856 53.8552 26.4695L53.3735 24.9949L54.6343 24.0837C55.1613 23.7029 54.8904 22.8739 54.2393 22.8739H52.6808Z" fill="#FFC700" stroke="#3C2828"/>
<path d="M30.8344 2.47759L30.3527 1.0031C30.1515 0.386989 29.2753 0.386989 29.0741 1.0031L28.5926 2.47759H27.0341C26.3829 2.47759 26.1122 3.30656 26.639 3.68735L27.8997 4.59863L27.4182 6.07311C27.217 6.68921 27.9258 7.20156 28.4526 6.82079L29.7135 5.90951L30.9742 6.82079C31.5011 7.20156 32.2099 6.68921 32.0086 6.07311L31.5271 4.59863L32.7879 3.68735C33.3147 3.30656 33.0439 2.47759 32.3927 2.47759H30.8344Z" fill="#FFC700" stroke="#3C2828"/>
<path d="M49.6566 35.9141L49.175 34.4396C48.9737 33.8234 48.0978 33.8234 47.8965 34.4396L47.4148 35.9141H45.8563C45.2052 35.9141 44.9343 36.743 45.4613 37.1239L46.7221 38.035L46.2404 39.5096C46.0391 40.1258 46.748 40.6381 47.275 40.2573L48.5357 39.3461L49.7965 40.2573C50.3235 40.6381 51.0323 40.1258 50.831 39.5096L50.3493 38.035L51.6101 37.1239C52.1371 36.743 51.8662 35.9141 51.2152 35.9141H49.6566Z" fill="#FFC700" stroke="#3C2828"/>
</g>
<path d="M6.29729 62.8084C6.38156 62.8878 6.45845 62.9465 6.52808 62.9846C6.59771 63.0191 6.65265 63.038 6.69295 63.0416C6.73325 63.045 6.79001 63.0468 6.8633 63.0468C6.94017 63.0468 7.04462 63.0139 7.17651 62.9482L7.35235 63.3213C7.10687 63.6079 6.80464 63.81 6.44564 63.9274C6.29546 63.9758 6.17457 64 6.08298 64C5.73497 64 5.4419 63.9171 5.20379 63.7514C4.96567 63.5855 4.76052 63.3938 4.58834 63.1763C4.41617 62.9587 4.25314 62.71 4.09929 62.4302C3.81354 61.919 3.59374 61.3993 3.43988 60.8708C3.11018 60.9122 2.74934 60.933 2.35736 60.933V62.0728C2.35736 62.3525 2.37934 62.7998 2.4233 63.4145L2.44528 63.7254C2.1339 63.8152 1.76207 63.8601 1.3298 63.8601C0.901182 63.8601 0.628264 63.8152 0.511035 63.7254C0.61727 62.9966 0.670395 62.4406 0.670395 62.0572V57.9022C0.670395 57.5948 0.641087 57.3979 0.582475 57.3116C0.523857 57.2252 0.48539 57.17 0.467075 57.1458C0.448759 57.1182 0.415793 57.0922 0.368168 57.0681C0.324208 57.0405 0.29307 57.0215 0.274755 57.0111C0.234451 56.9939 0.170347 56.9714 0.082427 56.9437C0.0274734 56.809 0 56.6761 0 56.5449C0 56.4102 0.00183157 56.3273 0.00549468 56.2962C0.987271 56.1545 2.07162 56.0838 3.25855 56.0838H3.57176C4.35205 56.0976 5.01878 56.2789 5.57195 56.6278C5.84304 56.8005 6.05916 57.0249 6.22036 57.3013C6.38156 57.5775 6.4621 57.8901 6.4621 58.239C6.4621 58.8192 6.31377 59.3148 6.01705 59.7258C5.72398 60.1334 5.23858 60.4408 4.56086 60.648C4.84661 61.0106 5.08655 61.3215 5.28071 61.5805C5.47487 61.8395 5.63239 62.0451 5.75328 62.1971C5.87417 62.3491 5.97308 62.4682 6.05001 62.5546C6.13061 62.641 6.21303 62.7256 6.29729 62.8084ZM4.83562 58.2493C4.83562 57.3375 4.26047 56.8816 3.11017 56.8816C2.89404 56.8816 2.6431 56.8954 2.35736 56.923V60.13C3.65419 60.0781 4.42898 59.7535 4.68175 59.156C4.78433 58.9038 4.83562 58.6016 4.83562 58.2493ZM13.4683 60.7983L13.4353 62.539C13.4353 62.5562 13.4353 62.5736 13.4353 62.5909C13.4353 62.7807 13.5305 62.8758 13.7211 62.8758C13.8676 62.8758 14.0232 62.8308 14.1881 62.741C14.2394 62.7825 14.287 62.8412 14.331 62.9172C14.3786 62.9898 14.4061 63.0468 14.4134 63.0882C13.9592 63.6339 13.4865 63.9067 12.9957 63.9067C12.5085 63.9067 12.1678 63.6805 11.9736 63.2281C11.6366 63.449 11.2922 63.6166 10.9405 63.7305C10.5926 63.848 10.2922 63.9067 10.0394 63.9067C9.79028 63.9067 9.55767 63.8809 9.34153 63.829C9.12904 63.7772 8.93126 63.6943 8.74803 63.5803C8.35246 63.3385 8.15461 62.9397 8.15461 62.3836C8.15461 62.0865 8.24069 61.8275 8.41288 61.6065C8.58872 61.3819 8.82681 61.2058 9.12721 61.078C9.70238 60.8328 10.3893 60.6999 11.1878 60.6791L11.8252 60.6584C11.8509 60.3786 11.8637 60.1576 11.8637 59.9952C11.8637 59.6292 11.7887 59.3529 11.6384 59.1663C11.492 58.9798 11.2171 58.8866 10.8142 58.8866C10.5724 58.8866 10.3838 58.966 10.2483 59.1249C10.1164 59.2838 10.0503 59.5186 10.0503 59.8295C10.0503 59.8709 9.98812 59.9209 9.86361 59.9797C9.65475 60.0729 9.4459 60.1195 9.23715 60.1195C9.03197 60.1195 8.86711 60.0643 8.74255 59.9538C8.62171 59.8433 8.56121 59.6878 8.56121 59.4875C8.56121 59.2872 8.63816 59.099 8.79206 58.9228C8.94589 58.7466 9.15106 58.6103 9.4075 58.5135C9.91671 58.3236 10.4973 58.2286 11.1494 58.2286C11.8308 58.2286 12.329 58.3305 12.644 58.5343C12.9298 58.7139 13.133 58.9712 13.254 59.3062C13.3968 59.6965 13.4683 60.1938 13.4683 60.7983ZM11.8252 62.6841C11.7776 62.4319 11.7538 62.2144 11.7538 62.0313C11.7538 61.8448 11.7594 61.5857 11.7703 61.2542L11.0066 61.2853C10.6145 61.2853 10.3123 61.3751 10.0998 61.5546C9.88738 61.7342 9.78118 61.9587 9.78118 62.2281C9.78118 62.4975 9.84338 62.6909 9.9679 62.8084C10.0925 62.9258 10.3434 62.9846 10.7207 62.9846C11.1017 62.9846 11.4699 62.8844 11.8252 62.6841ZM21.2107 62.9068C21.3573 62.9068 21.5002 62.8619 21.6394 62.7721L21.8646 63.1193C21.6192 63.4682 21.3024 63.7116 20.914 63.8497C20.7528 63.9084 20.5862 63.9378 20.414 63.9378C20.2418 63.9378 20.0732 63.8946 19.9084 63.8083C19.7473 63.7254 19.6043 63.6183 19.4798 63.4871C19.3553 63.3559 19.2325 63.1918 19.1117 62.9949C18.9944 62.798 18.8955 62.6098 18.815 62.4302C18.7344 62.2472 18.6538 62.0399 18.5732 61.8086C18.4742 61.5356 18.3625 61.1661 18.238 60.6999C17.9852 61.0694 17.7489 61.3699 17.5291 61.6013C17.5291 62.0019 17.5217 62.71 17.5072 63.7254C17.1481 63.7911 16.8276 63.8238 16.5455 63.8238C16.2671 63.8238 16.0326 63.7876 15.8421 63.715C15.9338 63.1935 15.9795 62.2196 15.9795 60.793C15.9795 59.3666 15.952 58.1405 15.897 57.1147C15.8677 56.7832 15.6352 56.5932 15.1992 56.5449C15.1955 56.5241 15.19 56.4931 15.1828 56.4516C15.1681 56.3721 15.1607 56.3152 15.1607 56.2807C15.1607 56.2426 15.1625 56.2098 15.1662 56.1822C15.8513 55.9266 16.551 55.7988 17.2653 55.7988C17.2983 55.7988 17.3331 55.7988 17.3697 55.7988C17.4503 55.8955 17.4998 56.0906 17.5181 56.3843C17.5364 56.6778 17.5456 57.2736 17.5456 58.1716C17.5456 59.0697 17.5438 59.8951 17.5401 60.648C17.9468 59.9331 18.3057 59.4185 18.6171 59.1042C18.9982 58.7208 19.3187 58.4808 19.5787 58.384C19.8425 58.2873 20.0788 58.239 20.2876 58.239C20.6539 58.239 20.9507 58.3356 21.1778 58.529C21.4086 58.7191 21.524 58.9764 21.524 59.301C21.524 59.6222 21.4105 59.8795 21.1832 60.0729C20.9598 60.2629 20.6924 60.3579 20.381 60.3579C20.3151 60.3579 20.2491 60.3528 20.1832 60.3423C20.1832 59.9486 20.1026 59.6706 19.9414 59.5082C19.8681 59.4323 19.7583 59.3943 19.6117 59.3943C19.4688 59.3943 19.326 59.4495 19.1831 59.5601C19.0402 59.6671 18.8754 59.8381 18.6886 60.0729C19.1941 60.926 19.6777 61.6117 20.1393 62.1298C20.6008 62.6478 20.958 62.9068 21.2107 62.9068ZM23.5516 55.7884C23.7678 55.6157 24.0022 55.5294 24.255 55.5294C24.5078 55.5294 24.7166 55.6037 24.8815 55.7522C25.0463 55.8972 25.1287 56.1028 25.1287 56.3687C25.1287 56.6346 25.0225 56.8591 24.81 57.0422C24.5975 57.2218 24.3539 57.3116 24.0791 57.3116C23.808 57.3116 23.5937 57.2322 23.4362 57.0733C23.2824 56.9145 23.2054 56.7106 23.2054 56.4619C23.2054 56.2133 23.3208 55.9888 23.5516 55.7884ZM23.4033 59.5756C23.4033 59.3131 23.3063 59.1577 23.1121 59.1094C22.9874 59.0713 22.8117 59.0437 22.5845 59.0265C22.5589 58.9228 22.546 58.8451 22.546 58.7933C22.546 58.7381 22.5479 58.6949 22.5515 58.6638C23.079 58.384 23.7404 58.2441 24.5353 58.2441C24.6635 58.2441 24.7587 58.2458 24.821 58.2493C24.9236 58.4013 24.995 58.6984 25.0353 59.1404C25.0647 59.3407 25.0792 59.6429 25.0792 60.0471C25.0792 60.4511 25.0647 61.6808 25.0353 63.7357C24.6286 63.8014 24.2898 63.8343 24.0187 63.8343C23.7513 63.8343 23.5242 63.8014 23.3373 63.7357C23.4033 62.9033 23.4362 62.1591 23.4362 61.5029C23.4362 60.8432 23.4252 60.2008 23.4033 59.5756ZM30.9149 61.0521L30.9205 60.7361C30.9205 60.1662 30.8656 59.7846 30.7556 59.5912C30.6494 59.3977 30.4478 59.301 30.1511 59.301C29.9716 59.301 29.7756 59.3632 29.5632 59.4875C29.3507 59.6084 29.0742 59.8036 28.7334 60.0729C28.7371 60.2837 28.7389 60.7793 28.7389 61.5598C28.7389 62.337 28.7371 63.0588 28.7334 63.7254C28.3488 63.7979 28.0154 63.8343 27.7333 63.8343C27.4513 63.8343 27.2187 63.8014 27.0354 63.7357C27.0831 62.9517 27.1069 62.2402 27.1069 61.6013C27.1069 60.9589 27.0941 60.2871 27.0685 59.586C27.0685 59.3235 26.9659 59.1715 26.7607 59.1301C26.6362 59.0921 26.4603 59.0644 26.2332 59.0472C26.2296 59.0265 26.224 59.0023 26.2167 58.9746C26.2131 58.9435 26.2094 58.9193 26.2058 58.9021C26.1984 58.8537 26.1947 58.8123 26.1947 58.7778C26.1947 58.7433 26.1965 58.7121 26.2002 58.6845C26.7461 58.3875 27.4037 58.239 28.1729 58.239C28.2426 58.239 28.3433 58.2425 28.4752 58.2493C28.5595 58.3737 28.6162 58.5567 28.6455 58.7985C28.6749 59.0368 28.6968 59.2043 28.7115 59.301C29.3453 58.7553 29.893 58.4169 30.3545 58.2856C30.567 58.2268 30.7739 58.1976 30.9754 58.1976C31.1769 58.1976 31.3564 58.2165 31.5139 58.2545C31.6751 58.289 31.8252 58.3461 31.9645 58.4255C32.2575 58.5947 32.4188 58.8796 32.4481 59.2803C33.1221 58.5584 33.8676 58.1976 34.6845 58.1976C35.1425 58.1976 35.5015 58.3081 35.7615 58.529C36.0474 58.7778 36.1902 59.2631 36.1902 59.9849C36.1902 60.2819 36.1645 60.705 36.1132 61.2542C36.0619 61.7999 36.0363 62.2937 36.0363 62.7358C36.0363 62.8257 36.1041 62.8948 36.2396 62.9431C36.3752 62.9914 36.5071 63.0156 36.6353 63.0156C36.7671 63.0156 36.8569 63.0088 36.9046 62.9949C36.9521 63.102 36.976 63.19 36.976 63.2591C36.976 63.3282 36.9704 63.3784 36.9595 63.4093C36.3623 63.7617 35.8696 63.9378 35.4813 63.9378C34.8476 63.9378 34.5307 63.4612 34.5307 62.508L34.6022 60.6687C34.6022 60.1437 34.5546 59.7863 34.4592 59.5963C34.364 59.4064 34.1918 59.3113 33.9427 59.3113C33.4702 59.3113 32.9756 59.5204 32.459 59.9383C32.481 62.1038 32.514 63.3386 32.5579 63.6425C32.166 63.7461 31.8473 63.7979 31.6018 63.7979C31.3601 63.7979 31.1091 63.7703 30.849 63.715C30.8453 63.6459 30.8435 63.5371 30.8435 63.3886L30.9149 61.0521ZM43.2073 60.7983L43.1744 62.539C43.1744 62.5562 43.1744 62.5736 43.1744 62.5909C43.1744 62.7807 43.2696 62.8758 43.4601 62.8758C43.6066 62.8758 43.7623 62.8308 43.9272 62.741C43.9785 62.7825 44.026 62.8412 44.07 62.9172C44.1177 62.9898 44.1452 63.0468 44.1525 63.0882C43.6982 63.6339 43.2257 63.9067 42.7348 63.9067C42.2476 63.9067 41.9068 63.6805 41.7126 63.2281C41.3757 63.449 41.0313 63.6166 40.6796 63.7305C40.3316 63.848 40.0312 63.9067 39.7784 63.9067C39.5293 63.9067 39.2967 63.8809 39.0805 63.829C38.8681 63.7772 38.6703 63.6943 38.4871 63.5803C38.0914 63.3385 37.8937 62.9397 37.8937 62.3836C37.8937 62.0865 37.9796 61.8275 38.1519 61.6065C38.3277 61.3819 38.5659 61.2058 38.8663 61.078C39.4414 60.8328 40.1283 60.6999 40.9268 60.6791L41.5643 60.6584C41.5899 60.3786 41.6028 60.1576 41.6028 59.9952C41.6028 59.6292 41.5276 59.3529 41.3775 59.1663C41.2309 58.9798 40.9562 58.8866 40.5532 58.8866C40.3114 58.8866 40.1227 58.966 39.9872 59.1249C39.8554 59.2838 39.7894 59.5186 39.7894 59.8295C39.7894 59.8709 39.7271 59.9209 39.6025 59.9797C39.3938 60.0729 39.185 60.1195 38.9761 60.1195C38.771 60.1195 38.6061 60.0643 38.4816 59.9538C38.3607 59.8433 38.3003 59.6878 38.3003 59.4875C38.3003 59.2872 38.3771 59.099 38.5311 58.9228C38.6849 58.7466 38.8901 58.6103 39.1465 58.5135C39.6557 58.3236 40.2364 58.2286 40.8885 58.2286C41.5698 58.2286 42.0679 58.3305 42.3831 58.5343C42.6688 58.7139 42.8722 58.9712 42.993 59.3062C43.1359 59.6965 43.2073 60.1938 43.2073 60.7983ZM41.5643 62.6841C41.5167 62.4319 41.4928 62.2144 41.4928 62.0313C41.4928 61.8448 41.4984 61.5857 41.5093 61.2542L40.7455 61.2853C40.3535 61.2853 40.0514 61.3751 39.8389 61.5546C39.6264 61.7342 39.5201 61.9587 39.5201 62.2281C39.5201 62.4975 39.5824 62.6909 39.707 62.8084C39.8316 62.9258 40.0825 62.9846 40.4598 62.9846C40.8408 62.9846 41.2089 62.8844 41.5643 62.6841ZM47.2132 58.8762L48.4551 58.9228C48.5613 58.9228 48.6383 58.9211 48.6858 58.9177C48.7005 58.9177 48.7078 59.0248 48.7078 59.2389C48.7078 59.4495 48.7005 59.5549 48.6858 59.5549C48.2572 59.6032 47.7664 59.6274 47.2132 59.6274C47.2132 61.8378 47.2498 63.2004 47.3231 63.715C47.1362 63.7876 46.8743 63.8238 46.5373 63.8238C46.2002 63.8238 45.9109 63.7911 45.669 63.7254C45.6325 62.0813 45.6141 60.6947 45.6141 59.5653C45.2918 59.5307 45.006 59.5134 44.7569 59.5134C44.7386 59.4858 44.7294 59.3839 44.7294 59.2077C44.7294 59.0316 44.7386 58.9349 44.7569 58.9177C45.006 58.8866 45.2918 58.8658 45.6141 58.8554C45.6288 58.1889 45.6398 57.7727 45.6471 57.6069C45.6545 57.4411 45.702 57.2304 45.79 56.9749C45.8779 56.7158 45.9878 56.5034 46.1197 56.3376C46.2553 56.1684 46.4109 56.0267 46.5867 55.9128C46.9092 55.709 47.2609 55.6072 47.6418 55.6072C48.0264 55.6072 48.3451 55.6434 48.5979 55.716C48.8507 55.7884 49.0558 55.9145 49.2134 56.0941C49.371 56.2703 49.4496 56.4913 49.4496 56.7573C49.4496 57.0198 49.3819 57.2374 49.2463 57.4101C49.1108 57.5827 48.8947 57.6691 48.5979 57.6691C48.4624 57.6691 48.3379 57.6449 48.2242 57.5965C48.1143 57.5482 48.0355 57.5033 47.988 57.4618C47.944 57.4169 47.9221 57.3893 47.9221 57.3789C47.9476 57.2684 47.9605 57.1303 47.9605 56.9645C47.9605 56.7987 47.9166 56.6502 47.8287 56.519C47.7407 56.3843 47.6162 56.3169 47.455 56.3169C47.2937 56.3169 47.1655 56.3721 47.0703 56.4826C46.9787 56.5897 46.9329 56.7314 46.9329 56.9075C46.9329 57.0837 46.9787 57.3514 47.0703 57.7105C47.1655 58.0698 47.2132 58.3132 47.2132 58.441V58.8762ZM50.3563 55.7884C50.5725 55.6157 50.8069 55.5294 51.0597 55.5294C51.3124 55.5294 51.5213 55.6037 51.6861 55.7522C51.8509 55.8972 51.9334 56.1028 51.9334 56.3687C51.9334 56.6346 51.8271 56.8591 51.6147 57.0422C51.4023 57.2218 51.1586 57.3116 50.8839 57.3116C50.6127 57.3116 50.3985 57.2322 50.2409 57.0733C50.0871 56.9145 50.0101 56.7106 50.0101 56.4619C50.0101 56.2133 50.1255 55.9888 50.3563 55.7884ZM50.208 59.5756C50.208 59.3131 50.1108 59.1577 49.9167 59.1094C49.7921 59.0713 49.6163 59.0437 49.3892 59.0265C49.3636 58.9228 49.3507 58.8451 49.3507 58.7933C49.3507 58.7381 49.3526 58.6949 49.3562 58.6638C49.8838 58.384 50.545 58.2441 51.3399 58.2441C51.4681 58.2441 51.5634 58.2458 51.6257 58.2493C51.7283 58.4013 51.7997 58.6984 51.84 59.1404C51.8693 59.3407 51.8839 59.6429 51.8839 60.0471C51.8839 60.4511 51.8693 61.6808 51.84 63.7357C51.4334 63.8014 51.0945 63.8343 50.8234 63.8343C50.556 63.8343 50.3288 63.8014 50.142 63.7357C50.2079 62.9033 50.2409 62.1591 50.2409 61.5029C50.2409 60.8432 50.2299 60.2008 50.208 59.5756ZM58.4835 60.7983L58.4505 62.539C58.4505 62.5562 58.4505 62.5736 58.4505 62.5909C58.4505 62.7807 58.5457 62.8758 58.7362 62.8758C58.8828 62.8758 59.0384 62.8308 59.2033 62.741C59.2546 62.7825 59.3021 62.8412 59.3462 62.9172C59.3939 62.9898 59.4213 63.0468 59.4286 63.0882C58.9743 63.6339 58.5018 63.9067 58.0109 63.9067C57.5237 63.9067 57.1829 63.6805 56.9888 63.2281C56.6518 63.449 56.3074 63.6166 55.9557 63.7305C55.6077 63.848 55.3074 63.9067 55.0545 63.9067C54.8054 63.9067 54.5729 63.8809 54.3567 63.829C54.1442 63.7772 53.9464 63.6943 53.7632 63.5803C53.3676 63.3385 53.1698 62.9397 53.1698 62.3836C53.1698 62.0865 53.2559 61.8275 53.428 61.6065C53.6039 61.3819 53.842 61.2058 54.1424 61.078C54.7175 60.8328 55.4044 60.6999 56.203 60.6791L56.8405 60.6584C56.866 60.3786 56.8789 60.1576 56.8789 59.9952C56.8789 59.6292 56.8038 59.3529 56.6536 59.1663C56.5071 58.9798 56.2324 58.8866 55.8294 58.8866C55.5876 58.8866 55.3989 58.966 55.2634 59.1249C55.1315 59.2838 55.0656 59.5186 55.0656 59.8295C55.0656 59.8709 55.0033 59.9209 54.8787 59.9797C54.6699 60.0729 54.4611 60.1195 54.2523 60.1195C54.0471 60.1195 53.8823 60.0643 53.7577 59.9538C53.6369 59.8433 53.5764 59.6878 53.5764 59.4875C53.5764 59.2872 53.6534 59.099 53.8072 58.9228C53.961 58.7466 54.1663 58.6103 54.4227 58.5135C54.9318 58.3236 55.5124 58.2286 56.1645 58.2286C56.8459 58.2286 57.3442 58.3305 57.6592 58.5343C57.945 58.7139 58.1483 58.9712 58.2691 59.3062C58.412 59.6965 58.4835 60.1938 58.4835 60.7983ZM56.8405 62.6841C56.7928 62.4319 56.769 62.2144 56.769 62.0313C56.769 61.8448 56.7745 61.5857 56.7854 61.2542L56.0217 61.2853C55.6297 61.2853 55.3275 61.3751 55.115 61.5546C54.9025 61.7342 54.7963 61.9587 54.7963 62.2281C54.7963 62.4975 54.8585 62.6909 54.9831 62.8084C55.1076 62.9258 55.3587 62.9846 55.7359 62.9846C56.117 62.9846 56.485 62.8844 56.8405 62.6841Z" fill="#3C2828"/>
</g>
<defs>
<clipPath id="clip0_384_44837">
<rect width="59.4286" height="64" fill="white"/>
</clipPath>
</defs>
</svg>
